<svg width="280" height="84.15" xmlns="http://www.w3.org/2000/svg" data-name="图层 1">
 <title>my</title>

 <g>
  <title>Layer 1</title>
  <path stroke="null" id="svg_1" fill="#211e3d" d="m252.49219,26.40784l4.62338,-11.15663c0.37081,-0.89802 0.74162,-1.80133 1.08896,-2.7152a0.61489,0.69201 0 0 1 0.72284,-0.45958c0.46938,0.05282 0.25816,0.44373 0.25816,0.67616c0,6.50275 0,13.00022 0,19.50297c0,0.52825 -0.12673,0.68672 -0.6055,0.68144c-3.34667,-0.03169 -6.69334,0 -10.03531,-0.02641c-0.28163,0 -0.56325,0.08452 -0.56325,-0.44373s0.29101,-0.44373 0.56795,-0.44373c3.05565,0 6.10192,0 9.17166,0c0.46938,0 0.68529,-0.07395 0.68529,-0.68144c0,-5.43569 0,-10.87137 0,-16.30178a0.61958,0.69729 0 0 0 -0.1502,-0.47542l-5.78274,13.95635c-1.95261,-4.71199 -3.8536,-9.31832 -5.79683,-14.02502a1.211,1.36288 0 0 0 -0.11734,0.89274q0,8.2988 0,16.58703c0,0.20602 0,0.41203 0,0.61805c0,0.36977 -0.24877,0.29054 -0.46938,0.30638s-0.34734,-0.05811 -0.33326,-0.33808s0,-0.41203 0,-0.61805c0,-6.29145 0,-12.58819 0,-18.88492c0,-0.32751 -0.29571,-0.8452 0.28163,-0.99311s0.61958,0.34864 0.77917,0.73427q2.67546,6.48162 5.35561,12.95796c0.13143,0.19545 0.19245,0.37506 0.31918,0.64975z" class="cls-1"/>
  <path id="svg_2" fill="#201e3d" d="m152.30001,37.19c-0.69,0 -0.9,0.46 -1.19,0.75c-3.52,3.49 -7.07,7 -10.52,10.51c-0.81,0.82 -1.22,0.71 -1.94,0c-3.7,-3.85 -7.44,-7.65 -11.17,-11.46c-0.73,0.6 -0.47,1.13 -0.48,1.58c0,9 0,17.93 0,26.9c0,0.49 0.57,1.39 -0.69,1.46s-0.95,-0.77 -0.95,-1.42q0,-14.79 0,-29.58c0,-0.47 -0.41,-1.2 0.36,-1.42a1.74,1.74 0 0 1 1.81,0.51c1.7,1.74 3.48,3.41 5.21,5.12c2,2 4.06,4 6,6c0.71,0.75 1.09,0.75 1.82,0c3.58,-3.66 7.23,-7.26 10.86,-10.88c0.42,-0.41 0.77,-0.89 1.51,-0.86s1.09,0.13 1.09,1q0,15.19 0,30.41c0,0.76 -0.19,1.08 -1,1.08q-10.7,-0.06 -21.39,0c-0.68,0 -1,-0.13 -1,-0.9s0.54,-0.79 1.09,-0.79c6.35,0 12.7,0 19,0c1.21,0 1.6,-0.22 1.59,-1.53c-0.06,-8.46 0,-16.93 0,-25.39l-0.01,-1.09z" class="cls-2"/>
  <path id="svg_3" fill="#211e3d" d="m230.39001,67.55c-3.19,-0.09 -6.32,-0.46 -9.11,-2.14c-0.41,-0.25 -1.48,-0.4 -0.74,-1.42c0.58,-0.8 1,-0.39 1.65,0a16.68,16.68 0 0 0 15.2,0.42a5.56,5.56 0 0 0 3.58,-5.85c-0.27,-3.12 -2.53,-4.53 -5,-5.65c-2.68,-1.21 -5.59,-1.75 -8.38,-2.65a16.87,16.87 0 0 1 -2.9,-1.24c-3.12,-1.69 -4.83,-4.2 -4.39,-7.86s2.63,-5.81 6.13,-6.77a18.83,18.83 0 0 1 11,0.55a3.06,3.06 0 0 1 1.33,0.68c0.47,0.52 1.8,0.61 1.22,1.69s-1.36,0.16 -2,-0.18a15,15 0 0 0 -12.26,-0.77c-2.46,0.85 -3.56,2.9 -3.72,5.42a5.44,5.44 0 0 0 2.89,5.39c2.57,1.54 5.46,2.15 8.27,3a18.75,18.75 0 0 1 6.63,3a7.6,7.6 0 0 1 -1.73,13.07a18.46,18.46 0 0 1 -7.67,1.31z" class="cls-1"/>
  <path id="svg_4" fill="#211f3d" d="m187.14001,50.47a29.41,29.41 0 0 0 0.68,7.78c1,4.3 3.58,7 8.06,7.43c4,0.41 7.91,0.45 11,-2.69c0.59,-0.59 0.82,0 1.18,0.25c0.56,0.42 0.21,0.69 -0.1,1a8.74,8.74 0 0 1 -4.07,2.49a19.09,19.09 0 0 1 -9.23,0.42c-5,-1 -7.57,-4.25 -8.55,-9a36.56,36.56 0 0 1 0,-15.06c1.2,-5.68 4,-8.29 9.7,-9.17a16,16 0 0 1 10,1.45a10,10 0 0 1 2.23,1.72c0.49,0.47 0.24,0.73 -0.12,1s-0.54,0.66 -1.07,0.18c-4,-3.68 -8.74,-3.49 -13.44,-2.15c-3.94,1.13 -5.34,4.56 -6,8.3a29.08,29.08 0 0 0 -0.27,6.05z" class="cls-3"/>
  <path stroke="null" id="svg_5" fill="#23203e" d="m264.11557,21.92991c0,-3.25078 0,-6.50156 0,-9.75234c0,-0.32508 -0.19971,-0.91564 0.28156,-0.89396c0.42562,0.02709 0.2521,0.5418 0.25537,0.86146q0,9.36225 0,18.7245c0,0.67183 0.07203,0.91564 0.52056,0.9048c2.05933,-0.04334 4.11866,0 6.17798,0c0.18334,0 0.44526,-0.20588 0.45181,0.43886s-0.25864,0.44969 -0.44199,0.45511c-2.25904,0 -4.51808,0 -6.77712,0c-0.37323,0 -0.48782,-0.13545 -0.48455,-0.78561c0.02947,-3.3158 0.01637,-6.63701 0.01637,-9.95281z" class="cls-4"/>
  <path id="svg_6" fill="#201e3c" d="m169.43001,50.48c0,-4.89 0,-9.78 0,-14.67c0,-0.54 -0.43,-1.37 0.79,-1.4s0.86,0.75 0.86,1.33q0,14.93 0,29.85c0,0.6 0.28,1.35 -0.88,1.31s-0.77,-0.89 -0.77,-1.42c-0.01,-5 0,-10 0,-15z" class="cls-5"/>
  <path id="svg_7" fill="#e9a88b" d="m18.59001,69.88a3.41,3.41 0 0 1 3.45,3.48a3.26,3.26 0 0 1 -3.35,3.19a3.52,3.52 0 0 1 -3.33,-3.6a3.16,3.16 0 0 1 3.23,-3.07z" class="cls-6"/>
  <path id="svg_8" fill="#e9a88b" d="m6.66001,40.09a3.56,3.56 0 0 1 -3.29,3.31a3.52,3.52 0 0 1 -3.37,-3.41a3.79,3.79 0 0 1 3.4,-3.46c1.61,-0.05 3.26,1.75 3.26,3.56z" class="cls-6"/>
  <path id="svg_9" fill="#e8a88c" d="m58.82001,79.84a3.34,3.34 0 1 1 -3.31,-3.3a3.1,3.1 0 0 1 3.31,3.3z" class="cls-7"/>
  <path id="svg_10" fill="#e9a88b" d="m39.63001,80.93a3.29,3.29 0 0 1 -3.48,3.22a3.55,3.55 0 0 1 -3.33,-3.48a3.65,3.65 0 0 1 3.57,-3.07a3.39,3.39 0 0 1 3.24,3.33z" class="cls-6"/>
  <path id="svg_11" fill="#e9a88b" d="m75.24001,21.45a3.53,3.53 0 0 1 -3.34,-3.62a3.37,3.37 0 0 1 3.4,-3a3.42,3.42 0 0 1 3.21,3.39a3.11,3.11 0 0 1 -3.27,3.23z" class="cls-6"/>
  <path id="svg_12" fill="#e9a88a" d="m10.03001,58.67a3.13,3.13 0 0 1 -3.14,3.16a3.54,3.54 0 0 1 -3.27,-3.49a3.08,3.08 0 0 1 3.28,-3.16a3.17,3.17 0 0 1 3.13,3.49z" class="cls-8"/>
  <path id="svg_13" fill="#e9a88b" d="m41.04001,6.4a3.11,3.11 0 0 1 -3.29,-3.17a3.21,3.21 0 0 1 3.31,-3.23a3.31,3.31 0 0 1 3.35,3.19a3.06,3.06 0 0 1 -3.37,3.21z" class="cls-6"/>
  <path id="svg_14" fill="#e9a88b" d="m22.82001,5.66a3.08,3.08 0 0 1 3.22,3.06a3.34,3.34 0 1 1 -6.67,0a3.21,3.21 0 0 1 3.45,-3.06z" class="cls-6"/>
  <path id="svg_15" fill="#e9a88b" d="m71.82001,73.25a2.77,2.77 0 0 1 -3.08,-3.05a3.17,3.17 0 0 1 3.43,-3.38a2.87,2.87 0 0 1 3,3.19a3.11,3.11 0 0 1 -3.35,3.24z" class="cls-6"/>
  <path id="svg_16" fill="#e9a88b" d="m60.20001,9.77a3.16,3.16 0 0 1 -3.42,-3.26a3,3 0 0 1 3.15,-3.12a3.59,3.59 0 0 1 3.53,3.28a3.15,3.15 0 0 1 -3.26,3.1z" class="cls-6"/>
  <path id="svg_17" fill="#e8a88b" d="m5.94001,22.12a3.19,3.19 0 0 1 3.13,-3.36a3.41,3.41 0 0 1 3.3,3.28a3.46,3.46 0 0 1 -3.45,3.3a3,3 0 0 1 -2.98,-3.22z" class="cls-9"/>
  <path id="svg_18" fill="#e0545b" d="m19.61001,25.12a2.68,2.68 0 0 1 2.38,2.51a2.51,2.51 0 0 1 -2.49,2.37a2.37,2.37 0 0 1 -2.35,-2.47a2.54,2.54 0 0 1 2.46,-2.41z" class="cls-10"/>
  <path id="svg_19" fill="#e0535a" d="m65.22001,60.5a2.07,2.07 0 0 1 2.3,2.23a2.3,2.3 0 0 1 -2.5,2.46a2.25,2.25 0 0 1 -2.22,-2.38a2.16,2.16 0 0 1 2.42,-2.31z" class="cls-11"/>
  <path id="svg_20" fill="#df555c" d="m28.96001,65.24a2.32,2.32 0 0 1 -2.34,2.29a2.66,2.66 0 0 1 -2.52,-2.37a2.77,2.77 0 0 1 2.57,-2.53a2.68,2.68 0 0 1 2.29,2.61z" class="cls-12"/>
  <path id="svg_21" fill="#df535a" d="m44.17001,12.89a2.38,2.38 0 0 1 -4.75,-0.12a2.38,2.38 0 1 1 4.75,0.12z" class="cls-13"/>
  <path id="svg_22" fill="#df545b" d="m29.35001,20.11a2.39,2.39 0 0 1 -2.53,-2.37a2.57,2.57 0 0 1 2.52,-2.37a2.35,2.35 0 0 1 2.35,2.31a2.29,2.29 0 0 1 -2.34,2.43z" class="cls-14"/>
  <path id="svg_23" fill="#df535a" d="m17.58001,56.46a2.45,2.45 0 0 1 -2.24,-2.58a2.37,2.37 0 0 1 2.35,-2.29a2.44,2.44 0 0 1 -0.11,4.87z" class="cls-13"/>
  <path id="svg_24" fill="#df535a" d="m38.88001,72.57a2.27,2.27 0 0 1 -2.45,-2.34a2.34,2.34 0 0 1 2.45,-2.36a2.48,2.48 0 0 1 2.42,2.46a2.4,2.4 0 0 1 -2.42,2.24z" class="cls-13"/>
  <path id="svg_25" fill="#df535a" d="m58.82001,16.11a2.4,2.4 0 0 1 -4.79,0.15a2.38,2.38 0 0 1 2.28,-2.53a2.53,2.53 0 0 1 2.51,2.38z" class="cls-13"/>
  <path id="svg_26" fill="#de545b" d="m14.75001,42.46a2.45,2.45 0 0 1 -2.44,-2.4a2.35,2.35 0 0 1 2.27,-2.37a2.27,2.27 0 0 1 2.51,2.28a2.42,2.42 0 0 1 -2.34,2.49z" class="cls-15"/>
  <path id="svg_27" fill="#df545c" d="m52.68001,71.85a2.67,2.67 0 0 1 -2.44,-2.33a2.56,2.56 0 0 1 2.47,-2.43a2.24,2.24 0 0 1 2.44,2.35a2.48,2.48 0 0 1 -2.47,2.41z" class="cls-16"/>
  <path id="svg_28" fill="#df5359" d="m69.82001,24.8a2.29,2.29 0 0 1 -2.46,2.32a2.55,2.55 0 0 1 -2.36,-2.53a2.41,2.41 0 0 1 2.45,-2.2a2.28,2.28 0 0 1 2.37,2.41z" class="cls-17"/>
  <path id="svg_29" fill="#211e3d" d="m110.64001,47.23a53.18,53.18 0 0 0 -0.37,-8.83c-1.12,-6.42 -3.53,-10.78 -10.62,-11.51c-7.75,-0.8 -13,2.17 -14.45,10.23a66.31,66.31 0 0 0 -0.27,18.61c0.74,7.11 4.11,10.92 10.58,11.65c7.52,0.85 12.69,-1.78 14.45,-9.85a46.17,46.17 0 0 0 0.68,-10.3zm-2.68,11.48a9,9 0 0 1 -7.14,6.83a14.9,14.9 0 0 1 -7.09,-0.13c-4,-1.05 -6.13,-4 -6.79,-7.84a57.19,57.19 0 0 1 0.05,-21c1.36,-6.8 6.34,-8.9 13.19,-7.9c5.68,0.82 7.63,4.69 8.43,9.86a52.92,52.92 0 0 1 0.34,7.82c0.02,4.68 0.13,8.56 -0.99,12.36z" class="cls-1"/>
 </g>
</svg>